<svg id="ic_group_user" xmlns="http://www.w3.org/2000/svg" width="64" height="64" viewBox="0 0 64 64">
  <rect id="Rectangle_14306" data-name="Rectangle 14306" width="64" height="64" fill="#fff" opacity="0"/>
  <path id="Path_80489" data-name="Path 80489" d="M54.083,43.417V38.083A8,8,0,0,0,39.8,33.131m.949,10.285V38.083a13.294,13.294,0,0,0-.949-4.952M14.083,43.417V38.083a13.294,13.294,0,0,1,.949-4.952m0,0a13.333,13.333,0,0,1,24.768,0M35.417,8.75a8,8,0,1,1-8-8A8,8,0,0,1,35.417,8.75Zm16,8a5.333,5.333,0,1,1-5.333-5.333A5.332,5.332,0,0,1,51.417,16.75Zm-37.333,0A5.333,5.333,0,1,1,8.75,11.417,5.332,5.332,0,0,1,14.083,16.75ZM.75,43.417V38.083a8,8,0,0,1,14.283-4.952" transform="translate(4.583 9.917)" fill="none" stroke="#fff" stroke-linecap="round" stroke-linejoin="round" stroke-width="4"/>
</svg>
